# vtk DataFile Version 3.0
LSPAero Wing Mesh
ASCII
DATASET UNSTRUCTURED_GRID

POINTS 306 float
0.000000 0.000000 0.000000
0.040363 0.057644 0.000000
0.159900 0.228361 0.000000
0.354019 0.505591 0.000000
0.615258 0.878680 0.000000
0.933579 1.333289 0.000000
1.296749 1.851950 0.000000
1.690811 2.414729 0.000000
2.100623 3.000000 0.000000
2.510434 3.585271 0.000000
2.904496 4.148050 0.000000
3.267666 4.666711 0.000000
3.585987 5.121320 0.000000
3.847226 5.494409 0.000000
4.041345 5.771639 0.000000
4.160882 5.942356 0.000000
4.201245 6.000000 0.000000
0.114181 0.000000 0.094739
0.153885 0.057644 0.094193
0.271474 0.228361 0.092576
0.462427 0.505591 0.089949
0.719406 0.878680 0.086415
1.032536 1.333289 0.082108
1.389784 1.851950 0.077194
1.777421 2.414729 0.071862
2.180549 3.000000 0.066317
2.583678 3.585271 0.060773
2.971314 4.148050 0.055441
3.328562 4.666711 0.050527
3.641692 5.121320 0.046220
3.898672 5.494409 0.042686
4.089625 5.771639 0.040059
4.207213 5.942356 0.038442
4.246918 6.000000 0.037896
0.439340 0.000000 0.159248
0.477170 0.057644 0.158330
0.589207 0.228361 0.155611
0.771146 0.505591 0.151197
1.015994 0.878680 0.145255
1.314342 1.333289 0.138016
1.654725 1.851950 0.129756
2.024063 2.414729 0.120794
2.408160 3.000000 0.111474
2.792258 3.585271 0.102153
3.161596 4.148050 0.093191
3.501979 4.666711 0.084932
3.800327 5.121320 0.077692
4.045175 5.494409 0.071751
4.227114 5.771639 0.067336
4.339151 5.942356 0.064617
4.376981 6.000000 0.063699
0.925975 0.000000 0.179965
0.961000 0.057644 0.178928
1.064730 0.228361 0.175856
1.233177 0.505591 0.170866
1.459869 0.878680 0.164152
1.736095 1.333289 0.155971
2.051238 1.851950 0.146637
2.393188 2.414729 0.136509
2.748805 3.000000 0.125976
3.104422 3.585271 0.115443
3.446372 4.148050 0.105315
3.761515 4.666711 0.095981
4.037741 5.121320 0.087799
4.264433 5.494409 0.081085
4.432880 5.771639 0.076096
4.536610 5.942356 0.073024
4.571635 6.000000 0.071986
1.500000 0.000000 0.158585
1.531716 0.057644 0.157670
1.625646 0.228361 0.154963
1.778180 0.505591 0.150567
1.983456 0.878680 0.144650
2.233586 1.333289 0.137441
2.518957 1.851950 0.129215
2.828602 2.414729 0.120291
3.150623 3.000000 0.111009
3.472643 3.585271 0.101728
3.782289 4.148050 0.092803
4.067659 4.666711 0.084578
4.317789 5.121320 0.077368
4.523065 5.494409 0.071452
4.675599 5.771639 0.067055
4.769529 5.942356 0.064348
4.801245 6.000000 0.063434
2.074025 0.000000 0.111565
2.102432 0.057644 0.110922
2.186563 0.228361 0.109017
2.323183 0.505591 0.105924
2.507043 0.878680 0.101762
2.731077 1.333289 0.096690
2.986675 1.851950 0.090904
3.264016 2.414729 0.084625
3.552440 3.000000 0.078095
3.840865 3.585271 0.071566
4.118205 4.148050 0.065287
4.373804 4.666711 0.059501
4.597838 5.121320 0.054429
4.781697 5.494409 0.050267
4.918318 5.771639 0.047174
5.002448 5.942356 0.045269
5.030855 6.000000 0.044626
2.560660 0.000000 0.058315
2.586262 0.057644 0.057979
2.662085 0.228361 0.056984
2.785214 0.505591 0.055367
2.950918 0.878680 0.053191
3.152829 1.333289 0.050540
3.383188 1.851950 0.047516
3.633142 2.414729 0.044234
3.893085 3.000000 0.040821
4.153028 3.585271 0.037408
4.402982 4.148050 0.034126
4.633340 4.666711 0.031101
4.835251 5.121320 0.028450
5.000955 5.494409 0.026275
5.124085 5.771639 0.024658
5.199907 5.942356 0.023662
5.225509 6.000000 0.023326
2.885819 0.000000 0.016196
2.909547 0.057644 0.016103
2.979819 0.228361 0.015826
3.093934 0.505591 0.015377
3.247506 0.878680 0.014773
3.434635 1.333289 0.014037
3.648129 1.851950 0.013197
3.879784 2.414729 0.012285
4.120696 3.000000 0.011337
4.361609 3.585271 0.010390
4.593263 4.148050 0.009478
4.806757 4.666711 0.008638
4.993886 5.121320 0.007902
5.147459 5.494409 0.007297
5.261574 5.771639 0.006848
5.331845 5.942356 0.006572
5.355573 6.000000 0.006479
3.000000 0.000000 -0.000000
3.023070 0.057644 -0.000000
3.091392 0.228361 -0.000000
3.202341 0.505591 -0.000000
3.351654 0.878680 -0.000000
3.533592 1.333289 -0.000000
3.741164 1.851950 -0.000000
3.966393 2.414729 -0.000000
4.200623 3.000000 -0.000000
4.434852 3.585271 -0.000000
4.660081 4.148050 -0.000000
4.867653 4.666711 -0.000000
5.049591 5.121320 -0.000000
5.198904 5.494409 -0.000000
5.309853 5.771639 -0.000000
5.378176 5.942356 -0.000000
5.401245 6.000000 -0.000000
0.000000 0.000000 0.000000
0.040363 0.057644 0.000000
0.159900 0.228361 0.000000
0.354019 0.505591 0.000000
0.615258 0.878680 0.000000
0.933579 1.333289 0.000000
1.296749 1.851950 0.000000
1.690811 2.414729 0.000000
2.100623 3.000000 0.000000
2.510434 3.585271 0.000000
2.904496 4.148050 0.000000
3.267666 4.666711 0.000000
3.585987 5.121320 0.000000
3.847226 5.494409 0.000000
4.041345 5.771639 0.000000
4.160882 5.942356 0.000000
4.201245 6.000000 0.000000
0.114181 0.000000 -0.094739
0.153885 0.057644 -0.094193
0.271474 0.228361 -0.092576
0.462427 0.505591 -0.089949
0.719406 0.878680 -0.086415
1.032536 1.333289 -0.082108
1.389784 1.851950 -0.077194
1.777421 2.414729 -0.071862
2.180549 3.000000 -0.066317
2.583678 3.585271 -0.060773
2.971314 4.148050 -0.055441
3.328562 4.666711 -0.050527
3.641692 5.121320 -0.046220
3.898672 5.494409 -0.042686
4.089625 5.771639 -0.040059
4.207213 5.942356 -0.038442
4.246918 6.000000 -0.037896
0.439340 0.000000 -0.159248
0.477170 0.057644 -0.158330
0.589207 0.228361 -0.155611
0.771146 0.505591 -0.151197
1.015994 0.878680 -0.145255
1.314342 1.333289 -0.138016
1.654725 1.851950 -0.129756
2.024063 2.414729 -0.120794
2.408160 3.000000 -0.111474
2.792258 3.585271 -0.102153
3.161596 4.148050 -0.093191
3.501979 4.666711 -0.084932
3.800327 5.121320 -0.077692
4.045175 5.494409 -0.071751
4.227114 5.771639 -0.067336
4.339151 5.942356 -0.064617
4.376981 6.000000 -0.063699
0.925975 0.000000 -0.179965
0.961000 0.057644 -0.178928
1.064730 0.228361 -0.175856
1.233177 0.505591 -0.170866
1.459869 0.878680 -0.164152
1.736095 1.333289 -0.155971
2.051238 1.851950 -0.146637
2.393188 2.414729 -0.136509
2.748805 3.000000 -0.125976
3.104422 3.585271 -0.115443
3.446372 4.148050 -0.105315
3.761515 4.666711 -0.095981
4.037741 5.121320 -0.087799
4.264433 5.494409 -0.081085
4.432880 5.771639 -0.076096
4.536610 5.942356 -0.073024
4.571635 6.000000 -0.071986
1.500000 0.000000 -0.158585
1.531716 0.057644 -0.157670
1.625646 0.228361 -0.154963
1.778180 0.505591 -0.150567
1.983456 0.878680 -0.144650
2.233586 1.333289 -0.137441
2.518957 1.851950 -0.129215
2.828602 2.414729 -0.120291
3.150623 3.000000 -0.111009
3.472643 3.585271 -0.101728
3.782289 4.148050 -0.092803
4.067659 4.666711 -0.084578
4.317789 5.121320 -0.077368
4.523065 5.494409 -0.071452
4.675599 5.771639 -0.067055
4.769529 5.942356 -0.064348
4.801245 6.000000 -0.063434
2.074025 0.000000 -0.111565
2.102432 0.057644 -0.110922
2.186563 0.228361 -0.109017
2.323183 0.505591 -0.105924
2.507043 0.878680 -0.101762
2.731077 1.333289 -0.096690
2.986675 1.851950 -0.090904
3.264016 2.414729 -0.084625
3.552440 3.000000 -0.078095
3.840865 3.585271 -0.071566
4.118205 4.148050 -0.065287
4.373804 4.666711 -0.059501
4.597838 5.121320 -0.054429
4.781697 5.494409 -0.050267
4.918318 5.771639 -0.047174
5.002448 5.942356 -0.045269
5.030855 6.000000 -0.044626
2.560660 0.000000 -0.058315
2.586262 0.057644 -0.057979
2.662085 0.228361 -0.056984
2.785214 0.505591 -0.055367
2.950918 0.878680 -0.053191
3.152829 1.333289 -0.050540
3.383188 1.851950 -0.047516
3.633142 2.414729 -0.044234
3.893085 3.000000 -0.040821
4.153028 3.585271 -0.037408
4.402982 4.148050 -0.034126
4.633340 4.666711 -0.031101
4.835251 5.121320 -0.028450
5.000955 5.494409 -0.026275
5.124085 5.771639 -0.024658
5.199907 5.942356 -0.023662
5.225509 6.000000 -0.023326
2.885819 0.000000 -0.016196
2.909547 0.057644 -0.016103
2.979819 0.228361 -0.015826
3.093934 0.505591 -0.015377
3.247506 0.878680 -0.014773
3.434635 1.333289 -0.014037
3.648129 1.851950 -0.013197
3.879784 2.414729 -0.012285
4.120696 3.000000 -0.011337
4.361609 3.585271 -0.010390
4.593263 4.148050 -0.009478
4.806757 4.666711 -0.008638
4.993886 5.121320 -0.007902
5.147459 5.494409 -0.007297
5.261574 5.771639 -0.006848
5.331845 5.942356 -0.006572
5.355573 6.000000 -0.006479
3.000000 0.000000 0.000000
3.023070 0.057644 0.000000
3.091392 0.228361 0.000000
3.202341 0.505591 0.000000
3.351654 0.878680 0.000000
3.533592 1.333289 0.000000
3.741164 1.851950 0.000000
3.966393 2.414729 0.000000
4.200623 3.000000 0.000000
4.434852 3.585271 0.000000
4.660081 4.148050 0.000000
4.867653 4.666711 0.000000
5.049591 5.121320 0.000000
5.198904 5.494409 0.000000
5.309853 5.771639 0.000000
5.378176 5.942356 0.000000
5.401245 6.000000 0.000000

CELLS 264 1320
4 0 17 18 1
4 1 18 19 2
4 2 19 20 3
4 3 20 21 4
4 4 21 22 5
4 5 22 23 6
4 6 23 24 7
4 7 24 25 8
4 8 25 26 9
4 9 26 27 10
4 10 27 28 11
4 11 28 29 12
4 12 29 30 13
4 13 30 31 14
4 14 31 32 15
4 15 32 33 16
4 17 34 35 18
4 18 35 36 19
4 19 36 37 20
4 20 37 38 21
4 21 38 39 22
4 22 39 40 23
4 23 40 41 24
4 24 41 42 25
4 25 42 43 26
4 26 43 44 27
4 27 44 45 28
4 28 45 46 29
4 29 46 47 30
4 30 47 48 31
4 31 48 49 32
4 32 49 50 33
4 34 51 52 35
4 35 52 53 36
4 36 53 54 37
4 37 54 55 38
4 38 55 56 39
4 39 56 57 40
4 40 57 58 41
4 41 58 59 42
4 42 59 60 43
4 43 60 61 44
4 44 61 62 45
4 45 62 63 46
4 46 63 64 47
4 47 64 65 48
4 48 65 66 49
4 49 66 67 50
4 51 68 69 52
4 52 69 70 53
4 53 70 71 54
4 54 71 72 55
4 55 72 73 56
4 56 73 74 57
4 57 74 75 58
4 58 75 76 59
4 59 76 77 60
4 60 77 78 61
4 61 78 79 62
4 62 79 80 63
4 63 80 81 64
4 64 81 82 65
4 65 82 83 66
4 66 83 84 67
4 68 85 86 69
4 69 86 87 70
4 70 87 88 71
4 71 88 89 72
4 72 89 90 73
4 73 90 91 74
4 74 91 92 75
4 75 92 93 76
4 76 93 94 77
4 77 94 95 78
4 78 95 96 79
4 79 96 97 80
4 80 97 98 81
4 81 98 99 82
4 82 99 100 83
4 83 100 101 84
4 85 102 103 86
4 86 103 104 87
4 87 104 105 88
4 88 105 106 89
4 89 106 107 90
4 90 107 108 91
4 91 108 109 92
4 92 109 110 93
4 93 110 111 94
4 94 111 112 95
4 95 112 113 96
4 96 113 114 97
4 97 114 115 98
4 98 115 116 99
4 99 116 117 100
4 100 117 118 101
4 102 119 120 103
4 103 120 121 104
4 104 121 122 105
4 105 122 123 106
4 106 123 124 107
4 107 124 125 108
4 108 125 126 109
4 109 126 127 110
4 110 127 128 111
4 111 128 129 112
4 112 129 130 113
4 113 130 131 114
4 114 131 132 115
4 115 132 133 116
4 116 133 134 117
4 117 134 135 118
4 119 136 137 120
4 120 137 138 121
4 121 138 139 122
4 122 139 140 123
4 123 140 141 124
4 124 141 142 125
4 125 142 143 126
4 126 143 144 127
4 127 144 145 128
4 128 145 146 129
4 129 146 147 130
4 130 147 148 131
4 131 148 149 132
4 132 149 150 133
4 133 150 151 134
4 134 151 152 135
4 153 154 171 170
4 154 155 172 171
4 155 156 173 172
4 156 157 174 173
4 157 158 175 174
4 158 159 176 175
4 159 160 177 176
4 160 161 178 177
4 161 162 179 178
4 162 163 180 179
4 163 164 181 180
4 164 165 182 181
4 165 166 183 182
4 166 167 184 183
4 167 168 185 184
4 168 169 186 185
4 170 171 188 187
4 171 172 189 188
4 172 173 190 189
4 173 174 191 190
4 174 175 192 191
4 175 176 193 192
4 176 177 194 193
4 177 178 195 194
4 178 179 196 195
4 179 180 197 196
4 180 181 198 197
4 181 182 199 198
4 182 183 200 199
4 183 184 201 200
4 184 185 202 201
4 185 186 203 202
4 187 188 205 204
4 188 189 206 205
4 189 190 207 206
4 190 191 208 207
4 191 192 209 208
4 192 193 210 209
4 193 194 211 210
4 194 195 212 211
4 195 196 213 212
4 196 197 214 213
4 197 198 215 214
4 198 199 216 215
4 199 200 217 216
4 200 201 218 217
4 201 202 219 218
4 202 203 220 219
4 204 205 222 221
4 205 206 223 222
4 206 207 224 223
4 207 208 225 224
4 208 209 226 225
4 209 210 227 226
4 210 211 228 227
4 211 212 229 228
4 212 213 230 229
4 213 214 231 230
4 214 215 232 231
4 215 216 233 232
4 216 217 234 233
4 217 218 235 234
4 218 219 236 235
4 219 220 237 236
4 221 222 239 238
4 222 223 240 239
4 223 224 241 240
4 224 225 242 241
4 225 226 243 242
4 226 227 244 243
4 227 228 245 244
4 228 229 246 245
4 229 230 247 246
4 230 231 248 247
4 231 232 249 248
4 232 233 250 249
4 233 234 251 250
4 234 235 252 251
4 235 236 253 252
4 236 237 254 253
4 238 239 256 255
4 239 240 257 256
4 240 241 258 257
4 241 242 259 258
4 242 243 260 259
4 243 244 261 260
4 244 245 262 261
4 245 246 263 262
4 246 247 264 263
4 247 248 265 264
4 248 249 266 265
4 249 250 267 266
4 250 251 268 267
4 251 252 269 268
4 252 253 270 269
4 253 254 271 270
4 255 256 273 272
4 256 257 274 273
4 257 258 275 274
4 258 259 276 275
4 259 260 277 276
4 260 261 278 277
4 261 262 279 278
4 262 263 280 279
4 263 264 281 280
4 264 265 282 281
4 265 266 283 282
4 266 267 284 283
4 267 268 285 284
4 268 269 286 285
4 269 270 287 286
4 270 271 288 287
4 272 273 290 289
4 273 274 291 290
4 274 275 292 291
4 275 276 293 292
4 276 277 294 293
4 277 278 295 294
4 278 279 296 295
4 279 280 297 296
4 280 281 298 297
4 281 282 299 298
4 282 283 300 299
4 283 284 301 300
4 284 285 302 301
4 285 286 303 302
4 286 287 304 303
4 287 288 305 304
4 16 33 186 169
4 33 50 203 186
4 50 67 220 203
4 67 84 237 220
4 84 101 254 237
4 101 118 271 254
4 118 135 288 271
4 135 152 305 288

CELL_TYPES 264
9
9
9
9
9
9
9
9
9
9
9
9
9
9
9
9
9
9
9
9
9
9
9
9
9
9
9
9
9
9
9
9
9
9
9
9
9
9
9
9
9
9
9
9
9
9
9
9
9
9
9
9
9
9
9
9
9
9
9
9
9
9
9
9
9
9
9
9
9
9
9
9
9
9
9
9
9
9
9
9
9
9
9
9
9
9
9
9
9
9
9
9
9
9
9
9
9
9
9
9
9
9
9
9
9
9
9
9
9
9
9
9
9
9
9
9
9
9
9
9
9
9
9
9
9
9
9
9
9
9
9
9
9
9
9
9
9
9
9
9
9
9
9
9
9
9
9
9
9
9
9
9
9
9
9
9
9
9
9
9
9
9
9
9
9
9
9
9
9
9
9
9
9
9
9
9
9
9
9
9
9
9
9
9
9
9
9
9
9
9
9
9
9
9
9
9
9
9
9
9
9
9
9
9
9
9
9
9
9
9
9
9
9
9
9
9
9
9
9
9
9
9
9
9
9
9
9
9
9
9
9
9
9
9
9
9
9
9
9
9
9
9
9
9
9
9
9
9
9
9
9
9
9
9
9
9
9
9
9
9
9
9
9
9

CELL_DATA 264
SCALARS surface_id int 1
LOOKUP_TABLE default
0
0
0
0
0
0
0
0
0
0
0
0
0
0
0
0
0
0
0
0
0
0
0
0
0
0
0
0
0
0
0
0
0
0
0
0
0
0
0
0
0
0
0
0
0
0
0
0
0
0
0
0
0
0
0
0
0
0
0
0
0
0
0
0
0
0
0
0
0
0
0
0
0
0
0
0
0
0
0
0
0
0
0
0
0
0
0
0
0
0
0
0
0
0
0
0
0
0
0
0
0
0
0
0
0
0
0
0
0
0
0
0
0
0
0
0
0
0
0
0
0
0
0
0
0
0
0
0
1
1
1
1
1
1
1
1
1
1
1
1
1
1
1
1
1
1
1
1
1
1
1
1
1
1
1
1
1
1
1
1
1
1
1
1
1
1
1
1
1
1
1
1
1
1
1
1
1
1
1
1
1
1
1
1
1
1
1
1
1
1
1
1
1
1
1
1
1
1
1
1
1
1
1
1
1
1
1
1
1
1
1
1
1
1
1
1
1
1
1
1
1
1
1
1
1
1
1
1
1
1
1
1
1
1
1
1
1
1
1
1
1
1
1
1
1
1
1
1
1
1
1
1
1
1
1
1
2
2
2
2
2
2
2
2

VECTORS normals float
-0.582932 0.408173 0.702556
-0.582932 0.408173 0.702556
-0.582932 0.408173 0.702556
-0.582932 0.408173 0.702556
-0.582932 0.408173 0.702556
-0.582932 0.408173 0.702556
-0.582932 0.408173 0.702556
-0.582932 0.408173 0.702556
-0.582932 0.408173 0.702556
-0.582932 0.408173 0.702556
-0.582932 0.408173 0.702556
-0.582932 0.408173 0.702556
-0.582932 0.408173 0.702556
-0.582932 0.408173 0.702556
-0.582932 0.408173 0.702556
-0.582932 0.408173 0.702556
-0.192630 0.141880 0.970960
-0.192630 0.141880 0.970960
-0.192630 0.141880 0.970960
-0.192630 0.141880 0.970960
-0.192630 0.141880 0.970960
-0.192630 0.141880 0.970960
-0.192630 0.141880 0.970960
-0.192630 0.141880 0.970960
-0.192630 0.141880 0.970960
-0.192630 0.141880 0.970960
-0.192630 0.141880 0.970960
-0.192630 0.141880 0.970960
-0.192630 0.141880 0.970960
-0.192630 0.141880 0.970960
-0.192630 0.141880 0.970960
-0.192630 0.141880 0.970960
-0.042493 0.043782 0.998137
-0.042493 0.043782 0.998137
-0.042493 0.043782 0.998137
-0.042493 0.043782 0.998137
-0.042493 0.043782 0.998137
-0.042493 0.043782 0.998137
-0.042493 0.043782 0.998137
-0.042493 0.043782 0.998137
-0.042493 0.043782 0.998137
-0.042493 0.043782 0.998137
-0.042493 0.043782 0.998137
-0.042493 0.043782 0.998137
-0.042493 0.043782 0.998137
-0.042493 0.043782 0.998137
-0.042493 0.043782 0.998137
-0.042493 0.043782 0.998137
0.037221 -0.004632 0.999296
0.037221 -0.004632 0.999296
0.037221 -0.004632 0.999296
0.037221 -0.004632 0.999296
0.037221 -0.004632 0.999296
0.037221 -0.004632 0.999296
0.037221 -0.004632 0.999296
0.037221 -0.004632 0.999296
0.037221 -0.004632 0.999296
0.037221 -0.004632 0.999296
0.037221 -0.004632 0.999296
0.037221 -0.004632 0.999296
0.037221 -0.004632 0.999296
0.037221 -0.004632 0.999296
0.037221 -0.004632 0.999296
0.037221 -0.004632 0.999296
0.081604 -0.029100 0.996240
0.081604 -0.029100 0.996240
0.081604 -0.029100 0.996240
0.081604 -0.029100 0.996240
0.081604 -0.029100 0.996240
0.081604 -0.029100 0.996240
0.081604 -0.029100 0.996240
0.081604 -0.029100 0.996240
0.081604 -0.029100 0.996240
0.081604 -0.029100 0.996240
0.081604 -0.029100 0.996240
0.081604 -0.029100 0.996240
0.081604 -0.029100 0.996240
0.081604 -0.029100 0.996240
0.081604 -0.029100 0.996240
0.081604 -0.029100 0.996240
0.108677 -0.042476 0.993169
0.108677 -0.042476 0.993169
0.108677 -0.042476 0.993169
0.108677 -0.042476 0.993169
0.108677 -0.042476 0.993169
0.108677 -0.042476 0.993169
0.108677 -0.042476 0.993169
0.108677 -0.042476 0.993169
0.108677 -0.042476 0.993169
0.108677 -0.042476 0.993169
0.108677 -0.042476 0.993169
0.108677 -0.042476 0.993169
0.108677 -0.042476 0.993169
0.108677 -0.042476 0.993169
0.108677 -0.042476 0.993169
0.108677 -0.042476 0.993169
0.128292 -0.051204 0.990414
0.128292 -0.051204 0.990414
0.128292 -0.051204 0.990414
0.128292 -0.051204 0.990414
0.128292 -0.051204 0.990414
0.128292 -0.051204 0.990414
0.128292 -0.051204 0.990414
0.128292 -0.051204 0.990414
0.128292 -0.051204 0.990414
0.128292 -0.051204 0.990414
0.128292 -0.051204 0.990414
0.128292 -0.051204 0.990414
0.128292 -0.051204 0.990414
0.128292 -0.051204 0.990414
0.128292 -0.051204 0.990414
0.128292 -0.051204 0.990414
0.140221 -0.056118 0.988529
0.140221 -0.056118 0.988529
0.140221 -0.056118 0.988529
0.140221 -0.056118 0.988529
0.140221 -0.056118 0.988529
0.140221 -0.056118 0.988529
0.140221 -0.056118 0.988529
0.140221 -0.056118 0.988529
0.140221 -0.056118 0.988529
0.140221 -0.056118 0.988529
0.140221 -0.056118 0.988529
0.140221 -0.056118 0.988529
0.140221 -0.056118 0.988529
0.140221 -0.056118 0.988529
0.140221 -0.056118 0.988529
0.140221 -0.056118 0.988529
-0.582932 0.408173 -0.702556
-0.582932 0.408173 -0.702556
-0.582932 0.408173 -0.702556
-0.582932 0.408173 -0.702556
-0.582932 0.408173 -0.702556
-0.582932 0.408173 -0.702556
-0.582932 0.408173 -0.702556
-0.582932 0.408173 -0.702556
-0.582932 0.408173 -0.702556
-0.582932 0.408173 -0.702556
-0.582932 0.408173 -0.702556
-0.582932 0.408173 -0.702556
-0.582932 0.408173 -0.702556
-0.582932 0.408173 -0.702556
-0.582932 0.408173 -0.702556
-0.582932 0.408173 -0.702556
-0.192630 0.141880 -0.970960
-0.192630 0.141880 -0.970960
-0.192630 0.141880 -0.970960
-0.192630 0.141880 -0.970960
-0.192630 0.141880 -0.970960
-0.192630 0.141880 -0.970960
-0.192630 0.141880 -0.970960
-0.192630 0.141880 -0.970960
-0.192630 0.141880 -0.970960
-0.192630 0.141880 -0.970960
-0.192630 0.141880 -0.970960
-0.192630 0.141880 -0.970960
-0.192630 0.141880 -0.970960
-0.192630 0.141880 -0.970960
-0.192630 0.141880 -0.970960
-0.192630 0.141880 -0.970960
-0.042493 0.043782 -0.998137
-0.042493 0.043782 -0.998137
-0.042493 0.043782 -0.998137
-0.042493 0.043782 -0.998137
-0.042493 0.043782 -0.998137
-0.042493 0.043782 -0.998137
-0.042493 0.043782 -0.998137
-0.042493 0.043782 -0.998137
-0.042493 0.043782 -0.998137
-0.042493 0.043782 -0.998137
-0.042493 0.043782 -0.998137
-0.042493 0.043782 -0.998137
-0.042493 0.043782 -0.998137
-0.042493 0.043782 -0.998137
-0.042493 0.043782 -0.998137
-0.042493 0.043782 -0.998137
0.037221 -0.004632 -0.999296
0.037221 -0.004632 -0.999296
0.037221 -0.004632 -0.999296
0.037221 -0.004632 -0.999296
0.037221 -0.004632 -0.999296
0.037221 -0.004632 -0.999296
0.037221 -0.004632 -0.999296
0.037221 -0.004632 -0.999296
0.037221 -0.004632 -0.999296
0.037221 -0.004632 -0.999296
0.037221 -0.004632 -0.999296
0.037221 -0.004632 -0.999296
0.037221 -0.004632 -0.999296
0.037221 -0.004632 -0.999296
0.037221 -0.004632 -0.999296
0.037221 -0.004632 -0.999296
0.081604 -0.029100 -0.996240
0.081604 -0.029100 -0.996240
0.081604 -0.029100 -0.996240
0.081604 -0.029100 -0.996240
0.081604 -0.029100 -0.996240
0.081604 -0.029100 -0.996240
0.081604 -0.029100 -0.996240
0.081604 -0.029100 -0.996240
0.081604 -0.029100 -0.996240
0.081604 -0.029100 -0.996240
0.081604 -0.029100 -0.996240
0.081604 -0.029100 -0.996240
0.081604 -0.029100 -0.996240
0.081604 -0.029100 -0.996240
0.081604 -0.029100 -0.996240
0.081604 -0.029100 -0.996240
0.108677 -0.042476 -0.993169
0.108677 -0.042476 -0.993169
0.108677 -0.042476 -0.993169
0.108677 -0.042476 -0.993169
0.108677 -0.042476 -0.993169
0.108677 -0.042476 -0.993169
0.108677 -0.042476 -0.993169
0.108677 -0.042476 -0.993169
0.108677 -0.042476 -0.993169
0.108677 -0.042476 -0.993169
0.108677 -0.042476 -0.993169
0.108677 -0.042476 -0.993169
0.108677 -0.042476 -0.993169
0.108677 -0.042476 -0.993169
0.108677 -0.042476 -0.993169
0.108677 -0.042476 -0.993169
0.128292 -0.051204 -0.990414
0.128292 -0.051204 -0.990414
0.128292 -0.051204 -0.990414
0.128292 -0.051204 -0.990414
0.128292 -0.051204 -0.990414
0.128292 -0.051204 -0.990414
0.128292 -0.051204 -0.990414
0.128292 -0.051204 -0.990414
0.128292 -0.051204 -0.990414
0.128292 -0.051204 -0.990414
0.128292 -0.051204 -0.990414
0.128292 -0.051204 -0.990414
0.128292 -0.051204 -0.990414
0.128292 -0.051204 -0.990414
0.128292 -0.051204 -0.990414
0.128292 -0.051204 -0.990414
0.140221 -0.056118 -0.988529
0.140221 -0.056118 -0.988529
0.140221 -0.056118 -0.988529
0.140221 -0.056118 -0.988529
0.140221 -0.056118 -0.988529
0.140221 -0.056118 -0.988529
0.140221 -0.056118 -0.988529
0.140221 -0.056118 -0.988529
0.140221 -0.056118 -0.988529
0.140221 -0.056118 -0.988529
0.140221 -0.056118 -0.988529
0.140221 -0.056118 -0.988529
0.140221 -0.056118 -0.988529
0.140221 -0.056118 -0.988529
0.140221 -0.056118 -0.988529
0.140221 -0.056118 -0.988529
0.000000 1.000000 0.000000
0.000000 1.000000 0.000000
0.000000 1.000000 0.000000
0.000000 1.000000 0.000000
0.000000 1.000000 0.000000
0.000000 1.000000 0.000000
0.000000 1.000000 0.000000
0.000000 1.000000 0.000000
