# vtk DataFile Version 3.0
LSPAero Wing Mesh
ASCII
DATASET UNSTRUCTURED_GRID

POINTS 462 float
0.000000 0.000000 0.000000
0.038799 0.043091 0.003013
0.154241 0.171302 0.011979
0.343484 0.381477 0.026675
0.601867 0.668441 0.046742
0.923028 1.025126 0.071684
1.299059 1.442752 0.100887
1.720702 1.911033 0.133632
2.177574 2.418441 0.169114
2.658424 2.952479 0.206457
3.151414 3.500000 0.244744
3.644404 4.047521 0.283030
4.125255 4.581559 0.320374
4.582126 5.088967 0.355855
5.003769 5.557248 0.388601
5.379800 5.974874 0.417804
5.700962 6.331559 0.442746
5.959345 6.618523 0.462812
6.148587 6.828698 0.477509
6.264029 6.956909 0.486474
6.302828 7.000000 0.489488
0.077180 0.000000 0.098533
0.115682 0.043091 0.101080
0.230238 0.171302 0.108660
0.418019 0.381477 0.121090
0.674393 0.668441 0.138073
0.993033 1.025126 0.159199
1.366079 1.442752 0.183958
1.784332 1.911033 0.211753
2.237480 2.418441 0.241907
2.714356 2.952479 0.273687
3.203210 3.500000 0.306316
3.692005 4.047521 0.338992
4.168706 4.581559 0.370910
4.621583 5.088967 0.401278
5.039495 5.557248 0.429342
5.412162 5.974874 0.454401
5.730424 6.331559 0.475826
5.986456 6.618523 0.493078
6.173966 6.828698 0.505722
6.288348 6.956909 0.513439
6.326790 7.000000 0.516033
0.321986 0.000000 0.190139
0.359451 0.043091 0.192178
0.470918 0.171302 0.198253
0.653629 0.381477 0.208234
0.903065 0.668441 0.221907
1.213058 1.025126 0.238977
1.575948 1.442752 0.259066
1.982770 1.911033 0.281726
2.423484 2.418441 0.306439
2.887219 2.952479 0.332631
3.362545 3.500000 0.359677
3.837756 4.047521 0.386921
4.301156 4.581559 0.413684
4.741348 5.088967 0.439288
5.147514 5.557248 0.463070
5.509675 5.974874 0.484402
5.818939 6.331559 0.502715
6.067718 6.618523 0.517510
6.249908 6.828698 0.528381
6.361040 6.956909 0.535027
6.398390 7.000000 0.537263
0.711596 0.000000 0.255307
0.747376 0.043091 0.256893
0.853826 0.171302 0.261628
1.028309 0.381477 0.269441
1.266497 0.668441 0.280209
1.562491 1.025126 0.293758
1.908965 1.442752 0.309854
2.297347 1.911033 0.328199
2.718044 2.418441 0.348434
3.160672 2.952479 0.370131
3.614318 3.500000 0.392805
4.067810 4.047521 0.415914
4.509990 4.581559 0.438873
4.929989 5.088967 0.461074
5.317493 5.557248 0.481896
5.662992 5.974874 0.500737
5.958012 6.331559 0.517032
6.195322 6.618523 0.530277
6.369106 6.828698 0.540055
6.475109 6.956909 0.546052
6.510735 7.000000 0.548072
1.206380 0.000000 0.277129
1.239993 0.043091 0.278408
1.339997 0.171302 0.282238
1.503909 0.381477 0.288604
1.727658 0.668441 0.297469
2.005695 1.025126 0.308768
2.331131 1.442752 0.322391
2.695909 1.911033 0.338172
3.091014 2.418441 0.355878
3.506690 2.952479 0.375194
3.932689 3.500000 0.395724
4.358522 4.047521 0.416992
4.773715 4.581559 0.438447
5.168066 5.088967 0.459484
5.531896 5.557248 0.479463
5.856280 5.974874 0.497738
6.133265 6.331559 0.513689
6.356066 6.618523 0.526751
6.519224 6.828698 0.536447
6.618745 6.956909 0.542416
6.652192 7.000000 0.544431
1.752056 0.000000 0.253059
1.783259 0.043091 0.254210
1.876093 0.171302 0.257673
2.028251 0.381477 0.263476
2.235953 0.668441 0.271652
2.494045 1.025126 0.282221
2.796129 1.442752 0.295171
3.134727 1.911033 0.310428
3.501471 2.418441 0.327840
3.887307 2.952479 0.347157
4.282727 3.500000 0.368018
4.677996 4.047521 0.389948
5.063395 4.581559 0.412371
5.429457 5.088967 0.434620
5.767197 5.557248 0.455971
6.068330 5.974874 0.475676
6.325470 6.331559 0.493000
6.532313 6.618523 0.507269
6.683790 6.828698 0.517907
6.776187 6.956909 0.524475
6.807240 7.000000 0.526695
2.294805 0.000000 0.199750
2.323599 0.043091 0.200903
2.409265 0.171302 0.204384
2.549675 0.381477 0.210257
2.741340 0.668441 0.218608
2.979507 1.025126 0.229522
3.258273 1.442752 0.243054
3.570741 1.911033 0.259195
3.909193 2.418441 0.277839
4.265280 2.952479 0.298759
4.630229 3.500000 0.321591
4.995061 4.047521 0.345825
5.350808 4.581559 0.370812
5.688731 5.088967 0.395790
6.000533 5.557248 0.419911
6.278560 5.974874 0.442289
6.515987 6.331559 0.462048
6.706986 6.618523 0.478378
6.846867 6.828698 0.490583
6.932194 6.956909 0.498130
6.960871 7.000000 0.500684
2.782665 0.000000 0.132160
2.809285 0.043091 0.133401
2.888484 0.171302 0.137157
3.018294 0.381477 0.143515
3.195494 0.668441 0.152599
3.415693 1.025126 0.164539
3.673438 1.442752 0.179434
3.962359 1.911033 0.197310
4.275325 2.418441 0.218081
4.604622 2.952479 0.241517
4.942146 3.500000 0.267222
5.279594 4.047521 0.294626
5.608675 4.581559 0.322992
5.921303 5.088967 0.351442
6.209798 5.557248 0.378993
6.467072 5.974874 0.404613
6.686798 6.331559 0.427278
6.863573 6.618523 0.446037
6.993046 6.828698 0.460071
7.072027 6.956909 0.468756
7.098573 7.000000 0.471696
3.168340 0.000000 0.066185
3.193236 0.043091 0.067551
3.267306 0.171302 0.071688
3.388712 0.381477 0.078699
3.554445 0.668441 0.088730
3.760402 1.025126 0.101938
4.001490 1.442752 0.118446
4.271757 1.911033 0.138293
4.564540 2.418441 0.161396
4.872630 2.952479 0.187504
5.188448 3.500000 0.216182
5.504233 4.047521 0.246795
5.812225 4.581559 0.278517
6.104856 5.088967 0.310362
6.374932 5.557248 0.341225
6.615807 5.974874 0.369943
6.821552 6.331559 0.395361
6.987094 6.618523 0.416406
7.108348 6.828698 0.432157
7.182320 6.956909 0.441905
7.207182 7.000000 0.445205
3.415131 0.000000 0.017823
3.438921 0.043091 0.019297
3.509701 0.171302 0.023758
3.625718 0.381477 0.031318
3.784098 0.668441 0.042135
3.980923 1.025126 0.056379
4.211334 1.442752 0.074180
4.469645 1.911033 0.095584
4.749495 2.418441 0.120496
5.043999 2.952479 0.148651
5.345918 3.500000 0.179575
5.647833 4.047521 0.212584
5.942327 4.581559 0.246789
6.222161 5.088967 0.281125
6.480452 5.557248 0.314401
6.710839 5.974874 0.345363
6.907643 6.331559 0.372767
7.066002 6.618523 0.395456
7.182002 6.828698 0.412436
7.252772 6.956909 0.422945
7.276558 7.000000 0.426503
3.500000 0.000000 -0.000000
3.523409 0.043091 0.001516
3.593057 0.171302 0.006104
3.707217 0.381477 0.013878
3.863065 0.668441 0.025001
4.056748 1.025126 0.039644
4.283482 1.442752 0.057941
4.537678 1.911033 0.079936
4.813078 2.418441 0.105534
5.102907 2.952479 0.134456
5.400044 3.500000 0.166220
5.697187 4.047521 0.200120
5.987038 4.581559 0.235244
6.262472 5.088967 0.270498
6.516711 5.557248 0.304661
6.743492 5.974874 0.336446
6.937222 6.331559 0.364576
7.093112 6.618523 0.387865
7.207306 6.828698 0.405294
7.276976 6.956909 0.416080
7.300392 7.000000 0.419731
0.000000 0.000000 0.000000
0.038799 0.043091 0.003013
0.154241 0.171302 0.011979
0.343484 0.381477 0.026675
0.601867 0.668441 0.046742
0.923028 1.025126 0.071684
1.299059 1.442752 0.100887
1.720702 1.911033 0.133632
2.177574 2.418441 0.169114
2.658424 2.952479 0.206457
3.151414 3.500000 0.244744
3.644404 4.047521 0.283030
4.125255 4.581559 0.320374
4.582126 5.088967 0.355855
5.003769 5.557248 0.388601
5.379800 5.974874 0.417804
5.700962 6.331559 0.442746
5.959345 6.618523 0.462812
6.148587 6.828698 0.477509
6.264029 6.956909 0.486474
6.302828 7.000000 0.489488
0.094122 0.000000 -0.081927
0.132472 0.043091 -0.078594
0.246580 0.171302 -0.068674
0.433642 0.381477 -0.052406
0.689058 0.668441 -0.030180
1.006550 1.025126 -0.002531
1.378311 1.442752 0.029874
1.795199 1.911033 0.066250
2.246959 2.418441 0.105713
2.722476 2.952479 0.147302
3.210046 3.500000 0.189997
3.697667 4.047521 0.232750
4.173329 4.581559 0.274505
4.625316 5.088967 0.314227
5.042490 5.557248 0.350929
5.414569 5.974874 0.383695
5.732378 6.331559 0.411706
5.988080 6.618523 0.434258
6.175368 6.828698 0.450785
6.289622 6.956909 0.460871
6.328022 7.000000 0.464261
0.346454 0.000000 -0.131273
0.383674 0.043091 -0.127831
0.494419 0.171302 -0.117581
0.675969 0.381477 -0.100754
0.923867 0.668441 -0.077727
1.232023 1.025126 -0.049023
1.592868 1.442752 -0.015300
1.997532 1.911033 0.022662
2.436069 2.418441 0.063971
2.897696 2.952479 0.107646
3.371054 3.500000 0.152632
3.844493 4.047521 0.197830
4.306354 4.581559 0.242118
4.745257 5.088967 0.284382
5.150382 5.557248 0.323546
5.511737 5.974874 0.358603
5.820403 6.331559 0.388640
6.068762 6.618523 0.412870
6.250678 6.828698 0.430652
6.361657 6.956909 0.441514
6.398958 7.000000 0.445167
0.731155 0.000000 -0.148202
0.766676 0.043091 -0.144850
0.872366 0.171302 -0.134860
1.045631 0.381477 -0.118430
1.282215 0.668441 -0.095890
1.576310 1.025126 -0.067702
1.920691 1.442752 -0.034455
2.306899 1.911033 0.003135
2.725442 2.418441 0.044235
3.166032 2.952479 0.087908
3.617831 3.500000 0.133125
4.069723 4.047521 0.178788
4.510579 4.581559 0.223756
4.929539 5.088967 0.266872
5.316271 5.557248 0.307002
5.661233 5.974874 0.343065
5.955908 6.331559 0.374068
6.193017 6.618523 0.399148
6.366697 6.828698 0.417593
6.472655 6.956909 0.428877
6.508267 7.000000 0.432675
1.212061 0.000000 -0.139729
1.245470 0.043091 -0.136620
1.344879 0.171302 -0.127343
1.507844 0.381477 -0.112046
1.730362 0.668441 -0.090983
2.006965 1.025126 -0.064518
2.330859 1.442752 -0.033131
2.694086 1.911033 0.002576
3.087718 2.418441 0.041880
3.502082 2.952479 0.083933
3.926986 3.500000 0.127780
4.351979 4.047521 0.172366
4.766597 4.581559 0.216566
5.160627 5.088967 0.259212
5.524354 5.557248 0.299132
5.848803 5.974874 0.335187
6.125962 6.331559 0.366321
6.348980 6.618523 0.391595
6.512342 6.828698 0.410234
6.612005 6.956909 0.421657
6.645503 7.000000 0.425505
1.747944 0.000000 -0.116948
1.779008 0.043091 -0.114169
1.871433 0.171302 -0.105859
2.022947 0.381477 -0.092111
2.229824 0.668441 -0.073085
2.486977 1.025126 -0.049027
2.788083 1.442752 -0.020282
3.125742 1.911033 0.012690
3.491654 2.418441 0.049299
3.876824 2.952479 0.088820
4.271784 3.500000 0.130393
4.666820 4.047521 0.173033
5.052208 4.581559 0.215649
5.418460 5.088967 0.257080
5.756546 5.557248 0.296127
6.058127 5.974874 0.331607
6.315754 6.331559 0.362399
6.523058 6.618523 0.387499
6.674912 6.828698 0.406068
6.767555 6.956909 0.417472
6.798694 7.000000 0.421318
2.286754 0.000000 -0.084940
2.315462 0.043091 -0.082532
2.400878 0.171302 -0.075315
2.540897 0.381477 -0.063319
2.732071 0.668441 -0.046607
2.969692 1.025126 -0.025300
3.247915 1.442752 0.000400
3.559894 1.911033 0.030186
3.897960 2.418441 0.063613
4.253800 2.952479 0.100091
4.618669 3.500000 0.138869
4.983595 4.047521 0.179042
5.339601 4.581559 0.219571
5.677922 5.088967 0.259307
5.990225 5.557248 0.297041
6.268806 5.974874 0.331553
6.506785 6.331559 0.361671
6.698282 6.618523 0.386330
6.838558 6.828698 0.404633
6.924138 6.956909 0.415899
6.952902 7.000000 0.419702
2.774583 0.000000 -0.052496
2.801160 0.043091 -0.050439
2.880233 0.171302 -0.044257
3.009852 0.381477 -0.033922
3.186817 0.668441 -0.019408
3.406766 1.025126 -0.000718
3.664281 1.442752 0.022079
3.953021 1.911033 0.048814
4.265885 2.418441 0.079182
4.595179 2.952479 0.112715
4.932811 3.500000 0.148768
5.270480 4.047521 0.186515
5.599885 4.581559 0.224963
5.912920 5.088967 0.262986
6.201876 5.557248 0.299366
6.459631 5.974874 0.332855
6.679820 6.331559 0.362235
6.857001 6.618523 0.386393
6.986791 6.828698 0.404381
7.065975 6.956909 0.415477
7.092589 7.000000 0.419227
3.163219 0.000000 -0.025168
3.188099 0.043091 -0.023398
3.262121 0.171302 -0.018059
3.383457 0.381477 -0.009079
3.549106 0.668441 0.003642
3.754981 1.025126 0.020192
3.996003 1.442752 0.040613
4.266234 1.911033 0.064846
4.559025 2.418441 0.092700
4.867174 2.952479 0.123806
5.183109 3.500000 0.157606
5.499066 4.047521 0.193337
5.807279 4.581559 0.230047
6.100170 5.088967 0.266628
6.370527 5.557248 0.301859
6.611689 5.974874 0.334468
6.817703 6.331559 0.363208
6.983479 6.618523 0.386924
7.104914 6.828698 0.404629
7.179001 6.956909 0.415569
7.203902 7.000000 0.419270
3.413567 0.000000 -0.006636
3.437353 0.043091 -0.005054
3.508123 0.171302 -0.000272
3.624125 0.381477 0.007816
3.782488 0.668441 0.019354
3.979299 1.025126 0.034493
4.209700 1.442752 0.053343
4.468011 1.911033 0.075921
4.747873 2.418441 0.102107
5.042404 2.952479 0.131600
5.344364 3.500000 0.163896
5.646336 4.047521 0.198275
5.940900 4.581559 0.233816
6.220813 5.088967 0.269420
6.479189 5.557248 0.303865
6.709661 5.974874 0.335870
6.906544 6.331559 0.364163
7.064971 6.618523 0.387566
7.181024 6.828698 0.405070
7.251827 6.956909 0.415898
7.275625 7.000000 0.419562
3.500000 0.000000 0.000000
3.523409 0.043091 0.001516
3.593057 0.171302 0.006104
3.707217 0.381477 0.013878
3.863065 0.668441 0.025001
4.056748 1.025126 0.039644
4.283482 1.442752 0.057941
4.537678 1.911033 0.079936
4.813078 2.418441 0.105534
5.102907 2.952479 0.134456
5.400044 3.500000 0.166220
5.697187 4.047521 0.200120
5.987038 4.581559 0.235244
6.262472 5.088967 0.270498
6.516711 5.557248 0.304661
6.743492 5.974874 0.336446
6.937222 6.331559 0.364576
7.093112 6.618523 0.387865
7.207306 6.828698 0.405294
7.276976 6.956909 0.416080
7.300392 7.000000 0.419731

CELLS 410 2050
4 0 21 22 1
4 1 22 23 2
4 2 23 24 3
4 3 24 25 4
4 4 25 26 5
4 5 26 27 6
4 6 27 28 7
4 7 28 29 8
4 8 29 30 9
4 9 30 31 10
4 10 31 32 11
4 11 32 33 12
4 12 33 34 13
4 13 34 35 14
4 14 35 36 15
4 15 36 37 16
4 16 37 38 17
4 17 38 39 18
4 18 39 40 19
4 19 40 41 20
4 21 42 43 22
4 22 43 44 23
4 23 44 45 24
4 24 45 46 25
4 25 46 47 26
4 26 47 48 27
4 27 48 49 28
4 28 49 50 29
4 29 50 51 30
4 30 51 52 31
4 31 52 53 32
4 32 53 54 33
4 33 54 55 34
4 34 55 56 35
4 35 56 57 36
4 36 57 58 37
4 37 58 59 38
4 38 59 60 39
4 39 60 61 40
4 40 61 62 41
4 42 63 64 43
4 43 64 65 44
4 44 65 66 45
4 45 66 67 46
4 46 67 68 47
4 47 68 69 48
4 48 69 70 49
4 49 70 71 50
4 50 71 72 51
4 51 72 73 52
4 52 73 74 53
4 53 74 75 54
4 54 75 76 55
4 55 76 77 56
4 56 77 78 57
4 57 78 79 58
4 58 79 80 59
4 59 80 81 60
4 60 81 82 61
4 61 82 83 62
4 63 84 85 64
4 64 85 86 65
4 65 86 87 66
4 66 87 88 67
4 67 88 89 68
4 68 89 90 69
4 69 90 91 70
4 70 91 92 71
4 71 92 93 72
4 72 93 94 73
4 73 94 95 74
4 74 95 96 75
4 75 96 97 76
4 76 97 98 77
4 77 98 99 78
4 78 99 100 79
4 79 100 101 80
4 80 101 102 81
4 81 102 103 82
4 82 103 104 83
4 84 105 106 85
4 85 106 107 86
4 86 107 108 87
4 87 108 109 88
4 88 109 110 89
4 89 110 111 90
4 90 111 112 91
4 91 112 113 92
4 92 113 114 93
4 93 114 115 94
4 94 115 116 95
4 95 116 117 96
4 96 117 118 97
4 97 118 119 98
4 98 119 120 99
4 99 120 121 100
4 100 121 122 101
4 101 122 123 102
4 102 123 124 103
4 103 124 125 104
4 105 126 127 106
4 106 127 128 107
4 107 128 129 108
4 108 129 130 109
4 109 130 131 110
4 110 131 132 111
4 111 132 133 112
4 112 133 134 113
4 113 134 135 114
4 114 135 136 115
4 115 136 137 116
4 116 137 138 117
4 117 138 139 118
4 118 139 140 119
4 119 140 141 120
4 120 141 142 121
4 121 142 143 122
4 122 143 144 123
4 123 144 145 124
4 124 145 146 125
4 126 147 148 127
4 127 148 149 128
4 128 149 150 129
4 129 150 151 130
4 130 151 152 131
4 131 152 153 132
4 132 153 154 133
4 133 154 155 134
4 134 155 156 135
4 135 156 157 136
4 136 157 158 137
4 137 158 159 138
4 138 159 160 139
4 139 160 161 140
4 140 161 162 141
4 141 162 163 142
4 142 163 164 143
4 143 164 165 144
4 144 165 166 145
4 145 166 167 146
4 147 168 169 148
4 148 169 170 149
4 149 170 171 150
4 150 171 172 151
4 151 172 173 152
4 152 173 174 153
4 153 174 175 154
4 154 175 176 155
4 155 176 177 156
4 156 177 178 157
4 157 178 179 158
4 158 179 180 159
4 159 180 181 160
4 160 181 182 161
4 161 182 183 162
4 162 183 184 163
4 163 184 185 164
4 164 185 186 165
4 165 186 187 166
4 166 187 188 167
4 168 189 190 169
4 169 190 191 170
4 170 191 192 171
4 171 192 193 172
4 172 193 194 173
4 173 194 195 174
4 174 195 196 175
4 175 196 197 176
4 176 197 198 177
4 177 198 199 178
4 178 199 200 179
4 179 200 201 180
4 180 201 202 181
4 181 202 203 182
4 182 203 204 183
4 183 204 205 184
4 184 205 206 185
4 185 206 207 186
4 186 207 208 187
4 187 208 209 188
4 189 210 211 190
4 190 211 212 191
4 191 212 213 192
4 192 213 214 193
4 193 214 215 194
4 194 215 216 195
4 195 216 217 196
4 196 217 218 197
4 197 218 219 198
4 198 219 220 199
4 199 220 221 200
4 200 221 222 201
4 201 222 223 202
4 202 223 224 203
4 203 224 225 204
4 204 225 226 205
4 205 226 227 206
4 206 227 228 207
4 207 228 229 208
4 208 229 230 209
4 231 232 253 252
4 232 233 254 253
4 233 234 255 254
4 234 235 256 255
4 235 236 257 256
4 236 237 258 257
4 237 238 259 258
4 238 239 260 259
4 239 240 261 260
4 240 241 262 261
4 241 242 263 262
4 242 243 264 263
4 243 244 265 264
4 244 245 266 265
4 245 246 267 266
4 246 247 268 267
4 247 248 269 268
4 248 249 270 269
4 249 250 271 270
4 250 251 272 271
4 252 253 274 273
4 253 254 275 274
4 254 255 276 275
4 255 256 277 276
4 256 257 278 277
4 257 258 279 278
4 258 259 280 279
4 259 260 281 280
4 260 261 282 281
4 261 262 283 282
4 262 263 284 283
4 263 264 285 284
4 264 265 286 285
4 265 266 287 286
4 266 267 288 287
4 267 268 289 288
4 268 269 290 289
4 269 270 291 290
4 270 271 292 291
4 271 272 293 292
4 273 274 295 294
4 274 275 296 295
4 275 276 297 296
4 276 277 298 297
4 277 278 299 298
4 278 279 300 299
4 279 280 301 300
4 280 281 302 301
4 281 282 303 302
4 282 283 304 303
4 283 284 305 304
4 284 285 306 305
4 285 286 307 306
4 286 287 308 307
4 287 288 309 308
4 288 289 310 309
4 289 290 311 310
4 290 291 312 311
4 291 292 313 312
4 292 293 314 313
4 294 295 316 315
4 295 296 317 316
4 296 297 318 317
4 297 298 319 318
4 298 299 320 319
4 299 300 321 320
4 300 301 322 321
4 301 302 323 322
4 302 303 324 323
4 303 304 325 324
4 304 305 326 325
4 305 306 327 326
4 306 307 328 327
4 307 308 329 328
4 308 309 330 329
4 309 310 331 330
4 310 311 332 331
4 311 312 333 332
4 312 313 334 333
4 313 314 335 334
4 315 316 337 336
4 316 317 338 337
4 317 318 339 338
4 318 319 340 339
4 319 320 341 340
4 320 321 342 341
4 321 322 343 342
4 322 323 344 343
4 323 324 345 344
4 324 325 346 345
4 325 326 347 346
4 326 327 348 347
4 327 328 349 348
4 328 329 350 349
4 329 330 351 350
4 330 331 352 351
4 331 332 353 352
4 332 333 354 353
4 333 334 355 354
4 334 335 356 355
4 336 337 358 357
4 337 338 359 358
4 338 339 360 359
4 339 340 361 360
4 340 341 362 361
4 341 342 363 362
4 342 343 364 363
4 343 344 365 364
4 344 345 366 365
4 345 346 367 366
4 346 347 368 367
4 347 348 369 368
4 348 349 370 369
4 349 350 371 370
4 350 351 372 371
4 351 352 373 372
4 352 353 374 373
4 353 354 375 374
4 354 355 376 375
4 355 356 377 376
4 357 358 379 378
4 358 359 380 379
4 359 360 381 380
4 360 361 382 381
4 361 362 383 382
4 362 363 384 383
4 363 364 385 384
4 364 365 386 385
4 365 366 387 386
4 366 367 388 387
4 367 368 389 388
4 368 369 390 389
4 369 370 391 390
4 370 371 392 391
4 371 372 393 392
4 372 373 394 393
4 373 374 395 394
4 374 375 396 395
4 375 376 397 396
4 376 377 398 397
4 378 379 400 399
4 379 380 401 400
4 380 381 402 401
4 381 382 403 402
4 382 383 404 403
4 383 384 405 404
4 384 385 406 405
4 385 386 407 406
4 386 387 408 407
4 387 388 409 408
4 388 389 410 409
4 389 390 411 410
4 390 391 412 411
4 391 392 413 412
4 392 393 414 413
4 393 394 415 414
4 394 395 416 415
4 395 396 417 416
4 396 397 418 417
4 397 398 419 418
4 399 400 421 420
4 400 401 422 421
4 401 402 423 422
4 402 403 424 423
4 403 404 425 424
4 404 405 426 425
4 405 406 427 426
4 406 407 428 427
4 407 408 429 428
4 408 409 430 429
4 409 410 431 430
4 410 411 432 431
4 411 412 433 432
4 412 413 434 433
4 413 414 435 434
4 414 415 436 435
4 415 416 437 436
4 416 417 438 437
4 417 418 439 438
4 418 419 440 439
4 420 421 442 441
4 421 422 443 442
4 422 423 444 443
4 423 424 445 444
4 424 425 446 445
4 425 426 447 446
4 426 427 448 447
4 427 428 449 448
4 428 429 450 449
4 429 430 451 450
4 430 431 452 451
4 431 432 453 452
4 432 433 454 453
4 433 434 455 454
4 434 435 456 455
4 435 436 457 456
4 436 437 458 457
4 437 438 459 458
4 438 439 460 459
4 439 440 461 460
4 20 41 272 251
4 41 62 293 272
4 62 83 314 293
4 83 104 335 314
4 104 125 356 335
4 125 146 377 356
4 146 167 398 377
4 167 188 419 398
4 188 209 440 419
4 209 230 461 440

CELL_TYPES 410
9
9
9
9
9
9
9
9
9
9
9
9
9
9
9
9
9
9
9
9
9
9
9
9
9
9
9
9
9
9
9
9
9
9
9
9
9
9
9
9
9
9
9
9
9
9
9
9
9
9
9
9
9
9
9
9
9
9
9
9
9
9
9
9
9
9
9
9
9
9
9
9
9
9
9
9
9
9
9
9
9
9
9
9
9
9
9
9
9
9
9
9
9
9
9
9
9
9
9
9
9
9
9
9
9
9
9
9
9
9
9
9
9
9
9
9
9
9
9
9
9
9
9
9
9
9
9
9
9
9
9
9
9
9
9
9
9
9
9
9
9
9
9
9
9
9
9
9
9
9
9
9
9
9
9
9
9
9
9
9
9
9
9
9
9
9
9
9
9
9
9
9
9
9
9
9
9
9
9
9
9
9
9
9
9
9
9
9
9
9
9
9
9
9
9
9
9
9
9
9
9
9
9
9
9
9
9
9
9
9
9
9
9
9
9
9
9
9
9
9
9
9
9
9
9
9
9
9
9
9
9
9
9
9
9
9
9
9
9
9
9
9
9
9
9
9
9
9
9
9
9
9
9
9
9
9
9
9
9
9
9
9
9
9
9
9
9
9
9
9
9
9
9
9
9
9
9
9
9
9
9
9
9
9
9
9
9
9
9
9
9
9
9
9
9
9
9
9
9
9
9
9
9
9
9
9
9
9
9
9
9
9
9
9
9
9
9
9
9
9
9
9
9
9
9
9
9
9
9
9
9
9
9
9
9
9
9
9
9
9
9
9
9
9
9
9
9
9
9
9
9
9
9
9
9
9
9
9
9
9
9
9
9
9
9
9
9
9
9
9
9
9
9
9
9
9
9
9
9
9
9
9
9
9
9
9
9
9
9
9
9
9
9
9
9
9
9
9
9
9
9
9
9
9
9
9
9
9
9
9

CELL_DATA 410
SCALARS surface_id int 1
LOOKUP_TABLE default
0
0
0
0
0
0
0
0
0
0
0
0
0
0
0
0
0
0
0
0
0
0
0
0
0
0
0
0
0
0
0
0
0
0
0
0
0
0
0
0
0
0
0
0
0
0
0
0
0
0
0
0
0
0
0
0
0
0
0
0
0
0
0
0
0
0
0
0
0
0
0
0
0
0
0
0
0
0
0
0
0
0
0
0
0
0
0
0
0
0
0
0
0
0
0
0
0
0
0
0
0
0
0
0
0
0
0
0
0
0
0
0
0
0
0
0
0
0
0
0
0
0
0
0
0
0
0
0
0
0
0
0
0
0
0
0
0
0
0
0
0
0
0
0
0
0
0
0
0
0
0
0
0
0
0
0
0
0
0
0
0
0
0
0
0
0
0
0
0
0
0
0
0
0
0
0
0
0
0
0
0
0
0
0
0
0
0
0
0
0
0
0
0
0
0
0
0
0
0
0
1
1
1
1
1
1
1
1
1
1
1
1
1
1
1
1
1
1
1
1
1
1
1
1
1
1
1
1
1
1
1
1
1
1
1
1
1
1
1
1
1
1
1
1
1
1
1
1
1
1
1
1
1
1
1
1
1
1
1
1
1
1
1
1
1
1
1
1
1
1
1
1
1
1
1
1
1
1
1
1
1
1
1
1
1
1
1
1
1
1
1
1
1
1
1
1
1
1
1
1
1
1
1
1
1
1
1
1
1
1
1
1
1
1
1
1
1
1
1
1
1
1
1
1
1
1
1
1
1
1
1
1
1
1
1
1
1
1
1
1
1
1
1
1
1
1
1
1
1
1
1
1
1
1
1
1
1
1
1
1
1
1
1
1
1
1
1
1
1
1
1
1
1
1
1
1
1
1
1
1
1
1
1
1
1
1
1
1
1
1
1
1
1
1
1
1
1
1
1
1
2
2
2
2
2
2
2
2
2
2

VECTORS normals float
-0.655054 0.554437 0.513326
-0.654776 0.554134 0.514007
-0.654225 0.553535 0.515353
-0.653411 0.552651 0.517331
-0.652350 0.551500 0.519892
-0.651063 0.550105 0.522973
-0.649576 0.548497 0.526499
-0.647921 0.546710 0.530384
-0.646133 0.544783 0.534531
-0.644254 0.542760 0.538840
-0.642326 0.540690 0.543205
-0.640397 0.538623 0.547519
-0.638516 0.536611 0.551676
-0.636731 0.534706 0.555575
-0.635091 0.532957 0.559121
-0.633641 0.531414 0.562226
-0.632423 0.530120 0.564813
-0.631474 0.529113 0.566816
-0.630824 0.528423 0.568182
-0.630494 0.528072 0.568874
-0.339083 0.250637 0.906755
-0.338374 0.249949 0.907209
-0.336971 0.248586 0.908105
-0.334906 0.246581 0.909415
-0.332223 0.243978 0.911100
-0.328982 0.240835 0.913110
-0.325258 0.237226 0.915386
-0.321135 0.233233 0.917864
-0.316709 0.228952 0.920476
-0.312086 0.224483 0.923152
-0.307377 0.219935 0.925823
-0.302696 0.215419 0.928423
-0.298161 0.211048 0.930891
-0.293886 0.206931 0.933172
-0.289981 0.203173 0.935218
-0.286546 0.199871 0.936986
-0.283676 0.197113 0.938443
-0.281447 0.194973 0.939560
-0.279923 0.193510 0.940317
-0.279150 0.192768 0.940700
-0.163969 0.098061 0.981580
-0.163147 0.097259 0.981796
-0.161522 0.095676 0.982220
-0.159132 0.093347 0.982834
-0.156033 0.090329 0.983613
-0.152299 0.086693 0.984525
-0.148017 0.082527 0.985536
-0.143290 0.077931 0.986608
-0.138231 0.073017 0.987705
-0.132964 0.067903 0.988792
-0.127616 0.062716 0.989839
-0.122319 0.057583 0.990819
-0.117204 0.052630 0.991712
-0.112397 0.047980 0.992504
-0.108018 0.043747 0.993186
-0.104178 0.040038 0.993752
-0.100974 0.036947 0.994203
-0.098492 0.034553 0.994538
-0.096797 0.032920 0.994760
-0.095938 0.032092 0.994870
-0.043848 0.002099 0.999036
-0.042998 0.001246 0.999074
-0.041320 -0.000438 0.999146
-0.038853 -0.002912 0.999241
-0.035658 -0.006115 0.999345
-0.031814 -0.009968 0.999444
-0.027413 -0.014376 0.999521
-0.022565 -0.019230 0.999560
-0.017387 -0.024410 0.999551
-0.012008 -0.029788 0.999484
-0.006559 -0.035231 0.999358
-0.001175 -0.040607 0.999175
0.004014 -0.045782 0.998943
0.008879 -0.050631 0.998678
0.013302 -0.055035 0.998396
0.017174 -0.058887 0.998117
0.020399 -0.062092 0.997862
0.022895 -0.064571 0.997650
0.024597 -0.066261 0.997499
0.025460 -0.067117 0.997420
0.044198 -0.061349 0.997137
0.045044 -0.062234 0.997045
0.046714 -0.063983 0.996857
0.049166 -0.066551 0.996571
0.052339 -0.069872 0.996182
0.056154 -0.073864 0.995686
0.060515 -0.078426 0.995082
0.065312 -0.083442 0.994370
0.070427 -0.088788 0.993558
0.075732 -0.094329 0.992656
0.081096 -0.099930 0.991684
0.086389 -0.105451 0.990665
0.091479 -0.110759 0.989628
0.096246 -0.115724 0.988607
0.100572 -0.120227 0.987639
0.104354 -0.124161 0.986760
0.107501 -0.127430 0.986005
0.109934 -0.129955 0.985407
0.111593 -0.131675 0.984992
0.112433 -0.132547 0.984779
0.097527 -0.094381 0.990748
0.098361 -0.095299 0.990577
0.100008 -0.097111 0.990236
0.102425 -0.099772 0.989725
0.105550 -0.103212 0.989043
0.109305 -0.107343 0.988195
0.113594 -0.112061 0.987187
0.118308 -0.117246 0.986031
0.123328 -0.122766 0.984743
0.128530 -0.128484 0.983347
0.133785 -0.134257 0.981874
0.138962 -0.139943 0.980360
0.143938 -0.145404 0.978846
0.148591 -0.150507 0.977378
0.152810 -0.155132 0.976004
0.156496 -0.159168 0.974769
0.159560 -0.162520 0.973719
0.161928 -0.165107 0.972892
0.163542 -0.166869 0.972321
0.164359 -0.167760 0.972030
0.136532 -0.115126 0.983923
0.137353 -0.116075 0.983697
0.138975 -0.117949 0.983247
0.141355 -0.120698 0.982574
0.144431 -0.124252 0.981683
0.148124 -0.128519 0.980583
0.152339 -0.133389 0.979286
0.156969 -0.138737 0.977810
0.161896 -0.144429 0.976181
0.166997 -0.150320 0.974431
0.172145 -0.156265 0.972598
0.177213 -0.162116 0.970729
0.182079 -0.167731 0.968872
0.186626 -0.172976 0.967083
0.190746 -0.177725 0.965417
0.194343 -0.181867 0.963927
0.197331 -0.185304 0.962664
0.199640 -0.187957 0.961674
0.201212 -0.189762 0.960991
0.202008 -0.190675 0.960643
0.167400 -0.129641 0.977328
0.168210 -0.130616 0.977059
0.169807 -0.132539 0.976524
0.172151 -0.135362 0.975726
0.175179 -0.139010 0.974674
0.178814 -0.143388 0.973378
0.182960 -0.148383 0.971858
0.187511 -0.153868 0.970136
0.192351 -0.159701 0.968244
0.197357 -0.165736 0.966220
0.202406 -0.171823 0.964110
0.207374 -0.177810 0.961967
0.212139 -0.183554 0.959846
0.216590 -0.188915 0.957810
0.220620 -0.193768 0.955919
0.224136 -0.197997 0.954233
0.227056 -0.201506 0.952807
0.229310 -0.204213 0.951690
0.230846 -0.206054 0.950922
0.231623 -0.206985 0.950530
0.190626 -0.139711 0.971670
0.191425 -0.140703 0.971370
0.193002 -0.142661 0.970772
0.195316 -0.145533 0.969882
0.198304 -0.149244 0.968711
0.201888 -0.153698 0.967274
0.205976 -0.158778 0.965590
0.210461 -0.164353 0.963688
0.215227 -0.170282 0.961603
0.220156 -0.176413 0.959380
0.225123 -0.182595 0.957068
0.230007 -0.188674 0.954725
0.234691 -0.194502 0.952412
0.239062 -0.199941 0.950196
0.243018 -0.204862 0.948142
0.246468 -0.209150 0.946314
0.249332 -0.212706 0.944770
0.251543 -0.215448 0.943561
0.253049 -0.217312 0.942731
0.253811 -0.218255 0.942308
0.203561 -0.145069 0.968255
0.204354 -0.146070 0.967938
0.205919 -0.148044 0.967306
0.208214 -0.150941 0.966366
0.211178 -0.154683 0.965131
0.214733 -0.159173 0.963615
0.218785 -0.164294 0.961842
0.223231 -0.169913 0.959842
0.227954 -0.175888 0.957654
0.232837 -0.182065 0.955322
0.237756 -0.188292 0.952900
0.242591 -0.194414 0.950449
0.247226 -0.200283 0.948033
0.251551 -0.205759 0.945720
0.255464 -0.210712 0.943577
0.258876 -0.215027 0.941672
0.261708 -0.218605 0.940064
0.263894 -0.221364 0.938807
0.265381 -0.223239 0.937943
0.266135 -0.224188 0.937503
-0.552271 0.541092 -0.634205
-0.552673 0.541416 -0.633578
-0.553466 0.542053 -0.632340
-0.554628 0.542985 -0.630520
-0.556125 0.544186 -0.628162
-0.557916 0.545621 -0.625322
-0.559951 0.547250 -0.622070
-0.562176 0.549030 -0.618485
-0.564533 0.550912 -0.614654
-0.566960 0.552848 -0.610669
-0.569396 0.554788 -0.606629
-0.571783 0.556687 -0.602631
-0.574063 0.558498 -0.598775
-0.576184 0.560181 -0.595155
-0.578098 0.561697 -0.591861
-0.579763 0.563015 -0.588974
-0.581141 0.564105 -0.586567
-0.582204 0.564944 -0.584702
-0.582926 0.565514 -0.583430
-0.583292 0.565803 -0.582785
-0.186590 0.238540 -0.953039
-0.187368 0.239236 -0.952712
-0.188902 0.240611 -0.952062
-0.191152 0.242626 -0.951101
-0.194060 0.245230 -0.949844
-0.197550 0.248352 -0.948312
-0.201530 0.251911 -0.946534
-0.205899 0.255815 -0.944545
-0.210545 0.259964 -0.942385
-0.215352 0.264253 -0.940103
-0.220199 0.268574 -0.937753
-0.224969 0.272824 -0.935391
-0.229546 0.276898 -0.933079
-0.233820 0.280700 -0.930879
-0.237693 0.284141 -0.928852
-0.241072 0.287142 -0.927057
-0.243878 0.289633 -0.925546
-0.246046 0.291556 -0.924368
-0.247522 0.292864 -0.923560
-0.248269 0.293527 -0.923149
-0.043882 0.115272 -0.992364
-0.044722 0.116066 -0.992234
-0.046381 0.117633 -0.991973
-0.048816 0.119934 -0.991581
-0.051966 0.122909 -0.991056
-0.055752 0.126482 -0.990401
-0.060078 0.130564 -0.989618
-0.064836 0.135049 -0.988715
-0.069907 0.139826 -0.987705
-0.075166 0.144776 -0.986605
-0.080481 0.149775 -0.985439
-0.085724 0.154701 -0.984235
-0.090765 0.159434 -0.983027
-0.095484 0.163860 -0.981852
-0.099766 0.167873 -0.980747
-0.103509 0.171378 -0.979753
-0.106623 0.174292 -0.978905
-0.109030 0.176543 -0.978236
-0.110671 0.178076 -0.977773
-0.111502 0.178852 -0.977537
0.017369 0.060927 -0.997991
0.016520 0.061774 -0.997953
0.014841 0.063446 -0.997875
0.012376 0.065901 -0.997749
0.009185 0.069078 -0.997569
0.005347 0.072897 -0.997325
0.000957 0.077262 -0.997010
-0.003876 0.082064 -0.996620
-0.009031 0.087183 -0.996151
-0.014383 0.092492 -0.995610
-0.019799 0.097859 -0.995003
-0.025146 0.103153 -0.994348
-0.030294 0.108244 -0.993663
-0.035116 0.113009 -0.992973
-0.039497 0.117333 -0.992307
-0.043329 0.121112 -0.991693
-0.046518 0.124254 -0.991159
-0.048986 0.126683 -0.990733
-0.050668 0.128337 -0.990435
-0.051521 0.129175 -0.990282
0.042230 0.036628 -0.998436
0.041379 0.037523 -0.998439
0.039699 0.039290 -0.998439
0.037231 0.041885 -0.998429
0.034034 0.045244 -0.998396
0.030188 0.049283 -0.998329
0.025788 0.053901 -0.998213
0.020942 0.058983 -0.998039
0.015769 0.064403 -0.997799
0.010397 0.070026 -0.997491
0.004958 0.075713 -0.997117
-0.000414 0.081324 -0.996688
-0.005588 0.086722 -0.996217
-0.010437 0.091776 -0.995725
-0.014844 0.096363 -0.995236
-0.018700 0.100371 -0.994774
-0.021910 0.103705 -0.994367
-0.024394 0.106281 -0.994037
-0.026088 0.108036 -0.993805
-0.026947 0.108925 -0.993685
0.059077 0.019108 -0.998071
0.058227 0.020051 -0.998102
0.056547 0.021914 -0.998159
0.054080 0.024651 -0.998232
0.050884 0.028193 -0.998307
0.047038 0.032453 -0.998366
0.042637 0.037326 -0.998393
0.037787 0.042689 -0.998374
0.032609 0.048410 -0.998295
0.027230 0.054347 -0.998151
0.021782 0.060353 -0.997939
0.016399 0.066281 -0.997666
0.011212 0.071985 -0.997343
0.006350 0.077325 -0.996986
0.001931 0.082173 -0.996616
-0.001938 0.086409 -0.996258
-0.005159 0.089932 -0.995935
-0.007652 0.092655 -0.995669
-0.009352 0.094509 -0.995480
-0.010213 0.095448 -0.995382
0.066143 0.009266 -0.997767
0.065293 0.010254 -0.997813
0.063616 0.012207 -0.997900
0.061150 0.015075 -0.998015
0.057956 0.018789 -0.998142
0.054111 0.023256 -0.998264
0.049711 0.028364 -0.998361
0.044862 0.033989 -0.998415
0.039683 0.039989 -0.998412
0.034302 0.046217 -0.998342
0.028852 0.052518 -0.998203
0.023465 0.058737 -0.997998
0.018275 0.064721 -0.997736
0.013408 0.070324 -0.997434
0.008984 0.075410 -0.997112
0.005111 0.079854 -0.996793
0.001886 0.083549 -0.996502
-0.000610 0.086405 -0.996260
-0.002313 0.088349 -0.996087
-0.003176 0.089334 -0.995997
0.069930 0.002548 -0.997549
0.069082 0.003575 -0.997605
0.067405 0.005604 -0.997710
0.064940 0.008585 -0.997852
0.061748 0.012444 -0.998014
0.057905 0.017085 -0.998176
0.053506 0.022395 -0.998316
0.048658 0.028241 -0.998416
0.043479 0.034478 -0.998459
0.038098 0.040952 -0.998435
0.032646 0.047502 -0.998338
0.027258 0.053967 -0.998171
0.022066 0.060188 -0.997943
0.017197 0.066013 -0.997671
0.012770 0.071300 -0.997373
0.008895 0.075920 -0.997074
0.005668 0.079760 -0.996798
0.003170 0.082728 -0.996567
0.001467 0.084748 -0.996401
0.000603 0.085772 -0.996315
0.073610 -0.002775 -0.997283
0.072762 -0.001720 -0.997348
0.071086 0.000365 -0.997470
0.068623 0.003427 -0.997637
0.065433 0.007391 -0.997830
0.061592 0.012160 -0.998027
0.057194 0.017616 -0.998208
0.052347 0.023623 -0.998350
0.047169 0.030033 -0.998435
0.041788 0.036686 -0.998453
0.036336 0.043418 -0.998396
0.030947 0.050064 -0.998266
0.025753 0.056458 -0.998073
0.020882 0.062446 -0.997830
0.016453 0.067879 -0.997558
0.012576 0.072628 -0.997280
0.009347 0.076575 -0.997020
0.006848 0.079624 -0.996801
0.005144 0.081700 -0.996644
0.004280 0.082752 -0.996561
0.076338 -0.005969 -0.997064
0.075490 -0.004899 -0.997135
0.073815 -0.002786 -0.997268
0.071353 0.000319 -0.997451
0.068164 0.004339 -0.997665
0.064325 0.009175 -0.997887
0.059928 0.014708 -0.998094
0.055082 0.020800 -0.998265
0.049905 0.027300 -0.998381
0.044524 0.034048 -0.998428
0.039072 0.040877 -0.998400
0.033682 0.047617 -0.998298
0.028488 0.054104 -0.998129
0.023616 0.060177 -0.997908
0.019186 0.065689 -0.997656
0.015308 0.070505 -0.997394
0.012078 0.074509 -0.997147
0.009578 0.077602 -0.996938
0.007872 0.079708 -0.996787
0.007008 0.080774 -0.996708
0.000000 1.000000 0.000000
0.000000 1.000000 0.000000
0.000000 1.000000 0.000000
0.000000 1.000000 0.000000
0.000000 1.000000 0.000000
0.000000 1.000000 0.000000
0.000000 1.000000 0.000000
0.000000 1.000000 0.000000
0.000000 1.000000 0.000000
0.000000 1.000000 0.000000
